<svg xmlns="http://www.w3.org/2000/svg" viewBox="0 0 38 38">
  <rect width="38" height="38" rx="10" fill="#2E5C61"/>
  <g transform="translate(9 29) scale(0.0208333 -0.0208333)">
    <path fill="#FFFDF8" d="M180 408Q180 466 206.5 524.5Q233 583 272.5 637.0Q312 691 358.0 738.5Q404 786 443 821Q451 828 460.5 831.5Q470 835 480.0 835.0Q490 835 499.5 831.5Q509 828 517 821Q556 786 602.0 738.5Q648 691 687.5 637.0Q727 583 753.5 524.5Q780 466 780 408Q780 277 694.0 188.5Q608 100 479.5 100.0Q351 100 265.5 188.5Q180 277 180 408ZM720 408Q720 481 659.5 573.0Q599 665 480 774Q361 665 300.5 573.0Q240 481 240 408Q240 301 308.0 230.5Q376 160 480.0 160.0Q584 160 652.0 230.5Q720 301 720 408ZM240 408Q240 481 300.5 573.0Q361 665 480 774Q599 665 659.5 573.0Q720 481 720 408Q720 301 652.0 230.5Q584 160 480.0 160.0Q376 160 308.0 230.5Q240 301 240 408ZM490 206Q500 207 507.0 214.0Q514 221 514 230Q514 242 506.5 248.5Q499 255 488 254Q447 251 398.5 278.0Q350 305 338 372Q336 382 329.5 388.0Q323 394 314 394Q303 394 295.5 385.5Q288 377 291 365Q307 277 369.5 240.0Q432 203 490 206Z"/>
  </g>
</svg>
